<svg width="1440" height="1522" viewBox="0 0 1440 1522" fill="none" xmlns="http://www.w3.org/2000/svg">
<path fill-rule="evenodd" clip-rule="evenodd" d="M1255.67 277.733C1137.28 438.271 996.047 564.226 856.804 619.241C717.568 674.253 563.811 677.283 402.417 652.56C241.024 627.836 71.9644 575.354 -97.8864 519.316C-123.418 510.892 -148.967 502.389 -174.511 493.887C-318.911 445.825 -463.138 397.82 -603.007 364.704C-767.616 325.73 -926.152 307.388 -1071.78 333.835C-1363.03 386.731 -1602.19 607.902 -1756.99 866.386C-1911.79 1124.88 -1982.17 1420.59 -1935.98 1622.47L-1936.68 1622.63C-1982.92 1420.5 -1912.45 1124.6 -1757.6 866.022C-1602.74 607.438 -1363.43 386.083 -1071.9 333.138C-926.14 306.665 -767.493 325.031 -602.843 364.014C-462.944 397.138 -318.685 445.153 -174.289 493.213L-174.285 493.215L-174.231 493.233C-148.705 501.729 -123.175 510.226 -97.6643 518.643C72.1876 574.681 241.196 627.146 402.524 651.859C563.85 676.572 717.467 673.531 856.544 618.582C995.615 563.635 1136.75 437.794 1255.1 277.312C1373.44 116.836 1468.97 -78.2447 1516.84 -271.625C1558.29 -439.076 1564.01 -605.223 1517.89 -746.519C1453.45 -780.69 1376.78 -806.431 1286.59 -821.863L1286.71 -822.562C1376.66 -807.17 1453.2 -781.526 1517.58 -747.488C1510.5 -769.031 1502.22 -789.993 1492.68 -810.292C1420.45 -963.909 1275.76 -1079.59 1033.69 -1121.01L1033.81 -1121.7C1276.07 -1080.25 1420.97 -964.453 1493.32 -810.594C1502.98 -790.048 1511.35 -768.825 1518.48 -747.01C1626.98 -689.411 1700.86 -607.91 1746.22 -511.451C1818.55 -357.613 1818.32 -165.785 1770.42 27.6883C1722.53 221.167 1626.96 416.331 1508.56 576.875C1390.18 737.414 1248.94 863.369 1109.7 918.384C970.463 973.396 816.707 976.426 655.312 951.703C493.92 926.979 324.86 874.497 155.009 818.459C129.478 810.035 103.929 801.532 78.3845 793.03C-66.0148 744.968 -210.243 696.963 -350.111 663.847C-514.721 624.873 -673.257 606.531 -818.883 632.978C-1110.14 685.874 -1349.29 907.044 -1504.09 1165.53C-1658.9 1424.02 -1729.28 1719.73 -1683.09 1921.61L-1683.78 1921.77C-1730.03 1719.64 -1659.55 1423.74 -1504.7 1165.17C-1349.84 906.581 -1110.54 685.226 -819.009 632.281C-673.244 605.808 -514.598 624.174 -349.948 663.157C-210.048 696.281 -65.7874 744.296 78.6088 792.357L78.6107 792.358L78.6643 792.376C104.19 800.872 129.72 809.369 155.231 817.786C325.083 873.824 494.092 926.288 655.42 951.002C816.746 975.715 970.363 972.673 1109.44 917.724C1248.51 862.778 1389.65 736.937 1507.99 576.455C1626.34 415.979 1721.86 220.898 1769.74 27.5179C1817.61 -165.867 1817.82 -357.512 1745.58 -511.149C1700.38 -607.263 1626.82 -688.525 1518.8 -746.04C1564.72 -604.727 1558.93 -438.706 1517.53 -271.455C1469.63 -77.9761 1374.06 117.188 1255.67 277.733ZM1621.71 1314.47C1760.95 1259.46 1902.19 1133.5 2020.57 972.962C2138.97 812.417 2234.54 617.253 2282.43 423.775C2330.33 230.301 2330.56 38.4739 2258.23 -115.365C2185.88 -269.224 2040.97 -385.024 1798.72 -426.476L1798.6 -425.777C2040.66 -384.358 2185.35 -268.679 2257.59 -115.063C2329.83 38.574 2329.62 230.219 2281.75 423.604C2233.87 616.984 2138.35 812.065 2020 972.541C1901.66 1133.02 1760.52 1258.86 1621.45 1313.81C1482.37 1368.76 1328.76 1371.8 1167.43 1347.09C1006.1 1322.37 837.093 1269.91 667.241 1213.87C641.73 1205.46 616.2 1196.96 590.674 1188.46L590.621 1188.44L590.619 1188.44C446.222 1140.38 301.962 1092.37 162.062 1059.24C-2.58797 1020.26 -161.234 1001.89 -306.999 1028.37C-598.528 1081.31 -837.833 1302.67 -992.691 1561.25C-1147.55 1819.83 -1218.02 2115.73 -1171.77 2317.86L-1171.08 2317.7C-1217.27 2115.82 -1146.89 1820.11 -992.083 1561.62C-837.284 1303.13 -598.127 1081.96 -306.873 1029.06C-161.247 1002.62 -2.71087 1020.96 161.899 1059.93C301.767 1093.05 445.995 1141.05 590.394 1189.12C615.938 1197.62 641.488 1206.12 667.019 1214.55C836.87 1270.58 1005.93 1323.07 1167.32 1347.79C1328.72 1372.51 1482.47 1369.48 1621.71 1314.47Z" fill="#09814A" fill-opacity="0.25"/>
</svg>
